<?xml version="1.0" standalone="no"?>
<!DOCTYPE svg PUBLIC "-//W3C//DTD SVG 20010904//EN"
 "http://www.w3.org/TR/2001/REC-SVG-20010904/DTD/svg10.dtd">
<svg version="1.0" xmlns="http://www.w3.org/2000/svg"
 width="661.000000pt" height="377.000000pt" viewBox="0 0 661.000000 377.000000"
 preserveAspectRatio="xMidYMid meet">

<g transform="translate(0.000000,377.000000) scale(0.100000,-0.100000)"
fill="#000000" stroke="none">
<path d="M1507 3002 l-757 -757 127 -124 c71 -67 413 -407 761 -754 l632 -632
1035 1035 1035 1035 120 -120 c66 -66 120 -125 120 -131 0 -6 -520 -530 -1156
-1164 l-1157 -1152 -641 641 -641 641 75 75 74 75 -54 55 c-30 30 -57 55 -60
55 -3 0 -65 -58 -137 -128 l-133 -127 760 -760 760 -760 700 700 700 700 335
-335 335 -335 467 467 468 468 -58 57 -57 58 -410 -410 -410 -410 -277 278
-278 277 460 460 460 460 460 -460 460 -460 -642 -642 -643 -643 -410 410
-410 410 -57 -58 -58 -57 468 -468 467 -467 757 758 758 757 -758 757 -757
758 -1035 -1035 -1035 -1035 -125 125 -125 125 1160 1160 1160 1160 642 -642
643 -643 -75 -75 -75 -75 58 -57 57 -58 133 133 132 132 -758 758 -757 757
-700 -700 -700 -700 -335 335 -335 335 -467 -467 -468 -468 58 -57 57 -58 410
410 410 410 277 -278 278 -277 -460 -460 -460 -460 -460 460 -460 460 641 641
641 641 408 -403 c224 -222 410 -405 414 -407 3 -1 31 23 61 53 l55 55 -465
465 c-256 256 -467 465 -470 465 -3 0 -346 -341 -763 -758z"/>
</g>
</svg>
